PathFileType	4	(X/Y/Z)	2014001\dynamic\2014001_C3_04.trc
DataRate	CameraRate	NumFrames	NumMarkers	Units	OrigDataRate	OrigDataStartFrame	OrigNumFrames
100.000000	100.000000	4	52	mm	100.000000	155	178
Frame#	Time	L_IAS			L_IPS			R_IPS			R_IAS			L_FTC			L_FLE			L_FME			L_FAX			L_TTC			L_FAL			L_TAM			L_FCC			L_FM1			L_FM2			L_FM5			R_FTC			R_FLE			R_FME			R_FAX			R_TTC			R_FAL			R_TAM			R_FCC			R_FM1			R_FM2			R_FM5			CV7			TV10			SXS			SJN			L_SIA			L_SRS			L_SAA			L_SAE			L_HLE			L_HME			L_UOA			L_RSP			L_UHE			L_HM2			L_HM5			R_SIA			R_SRS			R_SAA			R_SAE			R_HLE			R_HME			R_UOA			R_RSP			R_UHE			R_HM2			R_HM5			
		X1	Y1	Z1	X2	Y2	Z2	X3	Y3	Z3	X4	Y4	Z4	X5	Y5	Z5	X6	Y6	Z6	X7	Y7	Z7	X8	Y8	Z8	X9	Y9	Z9	X10	Y10	Z10	X11	Y11	Z11	X12	Y12	Z12	X13	Y13	Z13	X14	Y14	Z14	X15	Y15	Z15	X16	Y16	Z16	X17	Y17	Z17	X18	Y18	Z18	X19	Y19	Z19	X20	Y20	Z20	X21	Y21	Z21	X22	Y22	Z22	X23	Y23	Z23	X24	Y24	Z24	X25	Y25	Z25	X26	Y26	Z26	X27	Y27	Z27	X28	Y28	Z28	X29	Y29	Z29	X30	Y30	Z30	X31	Y31	Z31	X32	Y32	Z32	X33	Y33	Z33	X34	Y34	Z34	X35	Y35	Z35	X36	Y36	Z36	X37	Y37	Z37	X38	Y38	Z38	X39	Y39	Z39	X40	Y40	Z40	X41	Y41	Z41	X42	Y42	Z42	X43	Y43	Z43	X44	Y44	Z44	X45	Y45	Z45	X46	Y46	Z46	X47	Y47	Z47	X48	Y48	Z48	X49	Y49	Z49	X50	Y50	Z50	X51	Y51	Z51	X52	Y52	Z52	

156	1.55	98.83155822753912	866.7822265625005	-1222.838012695313	165.9440307617188	908.7854614257817	-1045.931396484375	255.2883605957032	906.9512329101567	-1038.77685546875	336.5883178710939	884.9035644531255	-1214.942504882813	43.17465972900392	782.3828125000005	-1146.110961914063	99.69022369384771	425.5260314941409	-1114.301635742188	212.0585174560548	418.8449401855471	-1135.614501953125	99.64794158935553	365.8357849121095	-1084.699340820313	146.6801452636719	340.4461364746095	-1143.258422851563	159.032699584961	61.87091064453128	-998.930541992188	245.2741699218751	68.36560821533206	-1030.915649414063	208.4322357177736	25.72328186035158	-956.4238281250005	217.3967742919923	16.97388267517091	-1140.540405273438	155.9631652832032	29.21035766601564	-1145.309936523438	114.6117935180665	17.78052711486817	-1086.083862304688	398.281433105469	786.8381958007817	-1128.57275390625	403.5073242187502	459.1080627441409	-1264.035034179688	289.0941162109376	443.0794982910159	-1303.146728515625	407.1838684082034	399.4922485351565	-1240.47900390625	372.0294189453126	382.9370727539064	-1312.463989257813	367.7494506835939	92.64390563964847	-1163.57763671875	295.8988647460939	99.02285766601568	-1221.520874023438	305.0325012207032	55.75884628295901	-1127.1513671875	341.9483642578126	30.51642990112306	-1308.909057617188	395.550720214844	44.939510345459	-1293.008178710938	420.7115173339846	34.85744094848634	-1234.082397460938	209.4368591308595	1369.802124023438	-1080.14013671875	199.4088439941407	1141.076293945313	-1015.757019042969	217.4964904785157	1154.914672851563	-1252.117065429688	222.7295532226564	1318.269653320313	-1206.02001953125	100.4642791748047	1183.382202148438	-1029.120971679688	121.8302841186524	1313.528564453125	-1039.979858398438	20.18245506286622	1323.025634765625	-1124.497192382813	42.39963150024415	1334.908569335938	-1161.549926757813	-47.71576309204103	1053.9833984375	-1196.34814453125	19.00514221191407	1010.589721679688	-1162.60595703125	-30.67233848571779	1008.89990234375	-1169.145874023438	30.44873428344728	867.4597167968755	-1350.870361328125	-45.21437072753908	851.3394165039067	-1329.561767578125	37.23528289794923	803.5838012695317	-1410.439331054688	-44.96231079101564	777.189575195313	-1354.457397460938	309.3944702148439	1179.430786132813	-1003.673828125	296.3073730468751	1303.676635742188	-1025.940673828125	405.501647949219	1301.588989257813	-1093.835571289063	400.5000610351565	1308.1337890625	-1143.948974609375	458.5603332519534	1005.501525878907	-1083.294189453125	380.4686889648439	992.2980346679692	-1062.699584960938	425.2740173339846	985.194213867188	-1056.112915039063	450.0362854003909	796.462036132813	-1176.046264648438	502.037048339844	798.145385742188	-1113.86669921875	468.4123840332034	704.2110595703127	-1197.485595703125	497.6323242187502	716.2175292968752	-1099.46923828125	
157	1.56	98.73607635498053	865.5285644531255	-1231.882202148438	166.7748260498047	907.7780151367192	-1055.402221679688	256.0540771484376	905.7446289062505	-1048.746459960938	336.5226440429689	883.676147460938	-1225.083374023438	43.10520935058595	782.1723632812505	-1154.54345703125	99.82615661621099	425.656677246094	-1116.302001953125	211.8534393310548	418.3477478027346	-1138.222290039063	99.78185272216803	366.2895812988282	-1086.103637695313	146.4576568603516	340.1890258789064	-1144.650634765625	159.3766021728516	62.42807388305667	-998.9066772460942	245.4701690673829	68.67954254150393	-1031.234008789063	208.8686523437501	26.34378242492677	-956.5530395507817	217.2798614501954	16.9906349182129	-1140.530883789063	155.8534393310547	29.09827804565431	-1145.182739257813	114.6568603515626	17.71980667114259	-1085.877197265625	398.5608215332034	785.5772094726567	-1139.173461914063	402.4834289550784	458.0875244140627	-1277.057495117188	287.8622436523439	442.872253417969	-1315.192749023438	406.487976074219	397.072204589844	-1256.450439453125	370.5966796875001	384.3623962402346	-1328.641967773438	369.3150024414064	86.01911163330081	-1200.037231445313	296.8088378906251	95.79115295410159	-1256.65771484375	307.0671691894532	46.54207992553712	-1165.87939453125	342.301971435547	34.01479339599611	-1349.049194335938	396.0426025390627	47.59782791137697	-1332.541259765625	421.7503051757815	33.61586761474611	-1274.877563476563	209.8925628662111	1368.905639648438	-1091.515747070313	199.4560546875001	1140.49853515625	-1026.249145507813	217.8644866943361	1153.24755859375	-1262.760864257813	223.5203552246095	1316.750366210938	-1217.2734375	100.0719833374024	1182.982055664063	-1040.503662109375	121.8235168457032	1313.0078125	-1051.709594726563	20.49507904052735	1322.757080078125	-1136.831298828125	43.00407028198244	1334.425659179688	-1173.638671875	-47.900936126709	1054.029907226563	-1209.989868164063	18.69718170166016	1010.093811035157	-1176.381225585938	-31.03359985351564	1008.219177246094	-1183.2763671875	32.82567596435548	871.448852539063	-1367.962158203125	-42.71521377563478	854.1122436523442	-1347.72314453125	40.62068557739259	809.5432739257817	-1429.307861328125	-41.51500320434572	780.6063842773442	-1374.59716796875	308.9036865234376	1178.603881835938	-1013.712463378907	296.1535949707032	1302.7109375	-1036.796508789063	405.6593322753909	1300.056274414063	-1104.115356445313	401.0510559082034	1306.562133789063	-1154.603759765625	458.5721130371096	1004.250610351563	-1090.843017578125	380.4143066406251	991.0944824218755	-1070.791625976563	425.2353515625002	984.183227539063	-1063.733032226563	450.5083007812502	794.5798339843755	-1182.342163085938	502.114929199219	796.642700195313	-1119.853759765625	469.2400817871096	702.3840332031252	-1203.33642578125	497.7336120605471	714.6922607421877	-1105.162353515625	
158	1.57	98.73508453369146	864.1450805664067	-1241.064331054688	167.6378173828126	906.582397460938	-1065.001098632813	256.8372192382814	904.297973632813	-1058.810180664063	336.578338623047	882.198608398438	-1235.338623046875	43.03356552124025	781.8364257812505	-1163.174438476563	99.97525787353521	425.8269042968752	-1118.378295898438	211.6961212158204	417.867858886719	-1140.8232421875	99.94163513183599	366.8042907714845	-1087.541137695313	146.2427368164063	339.9436340332032	-1146.087280273438	159.7178039550782	63.00912094116214	-998.939575195313	245.6438598632814	69.04142761230472	-1031.607299804688	209.3050842285157	27.05122947692873	-956.692260742188	217.1673431396486	17.00802230834962	-1140.487426757813	155.7355346679688	28.9890594482422	-1145.035888671875	114.6968154907227	17.66293907165528	-1085.646118164063	398.8394165039065	783.9870605468755	-1149.711059570313	401.4044189453127	456.5637817382815	-1289.415649414063	286.5661621093751	442.0558776855471	-1326.568725585938	405.7312927246096	394.4067687988284	-1271.951171875	369.1106872558595	385.5373229980471	-1344.158569335938	370.8619689941407	80.54813385009768	-1236.7255859375	297.6834411621095	93.65637969970706	-1291.717651367188	309.068328857422	38.63497543334962	-1204.984375	342.3730468750001	38.86180114746095	-1388.694213867188	396.2905578613284	51.52558135986331	-1371.751708984375	422.6141357421877	33.67441177368165	-1315.674194335938	210.4040679931642	1367.788330078125	-1102.9609375	199.6599273681642	1139.716064453125	-1036.785278320313	218.3188934326173	1151.394775390625	-1273.4853515625	224.3717346191407	1315.03369140625	-1228.557983398438	99.85196685791021	1182.369384765625	-1051.857666015625	121.922592163086	1312.278564453125	-1063.462890625	20.90136909484864	1322.223266601563	-1149.171508789063	43.68456649780275	1333.666381835938	-1185.718139648438	-48.01259231567386	1053.771606445313	-1223.380981445313	18.53081703186036	1009.348083496094	-1189.93896484375	-31.27358818054201	1007.280029296875	-1197.184326171875	35.14052581787111	875.2105102539067	-1384.6845703125	-40.20503616333009	856.6159057617192	-1365.39794921875	43.86538314819337	815.353881835938	-1447.751098632813	-38.01436233520509	783.8347167968755	-1394.253051757813	308.5860595703126	1177.616333007813	-1023.826232910157	296.1365051269532	1301.576904296875	-1047.705200195313	405.934753417969	1298.37548828125	-1114.509033203125	401.7048339843752	1304.87109375	-1165.3916015625	458.5952758789065	1002.812622070313	-1098.702026367188	380.3973693847657	989.7405395507817	-1079.16650390625	425.2056274414065	982.9942016601567	-1071.595947265625	450.9333190917971	792.5396118164067	-1188.839721679688	502.229919433594	795.0126342773442	-1126.114868164063	470.010437011719	700.3879394531252	-1209.368774414063	497.9547424316409	713.0648193359377	-1111.102783203125	
159	1.58	98.82199096679693	862.6381225585942	-1250.398071289063	168.533187866211	905.2119140625005	-1074.737670898438	257.6388549804689	902.6265258789067	-1068.985107421875	336.7440490722657	880.489624023438	-1245.72802734375	42.96034240722658	781.3593139648442	-1171.97802734375	100.1287918090821	426.0248718261721	-1120.574951171875	211.5837554931642	417.3995056152346	-1143.467163085938	100.1186904907227	367.3665161132814	-1089.067138671875	146.0315551757813	339.7048645019532	-1147.625854492188	160.0306396484376	63.62799453735354	-999.0339355468755	245.7815551757814	69.46099090576175	-1032.035034179688	209.7180175781251	27.86372184753419	-956.8430786132817	217.0575256347657	17.03479385375977	-1140.41015625	155.6075134277344	28.88977241516115	-1144.87646484375	114.7241668701172	17.61408615112305	-1085.400756835938	399.1293640136721	782.094116210938	-1160.216552734375	400.2952270507815	454.5947570800784	-1301.17822265625	285.2141418457032	440.6938781738284	-1337.365112304688	404.9157714843752	391.567077636719	-1286.993774414063	367.6058959960939	386.491394042969	-1359.061401367188	372.3306274414064	76.28145599365237	-1273.341430664063	298.4963989257814	92.64312744140628	-1326.456420898438	310.9598388671876	32.11506271362306	-1244.134399414063	342.1622619628907	44.97986984252931	-1427.558715820313	396.2859802246096	56.66220855712893	-1410.358520507813	423.264343261719	35.002254486084	-1356.151000976563	210.9633789062501	1366.451171875	-1114.482788085938	200.0201110839845	1138.73583984375	-1047.36279296875	218.8622894287111	1149.373901367188	-1284.295532226563	225.2881622314454	1313.135131835938	-1239.87158203125	99.81096649169928	1181.546020507813	-1063.18212890625	122.1373977661133	1311.345581054688	-1075.229858398438	21.40981674194337	1321.423461914063	-1161.501342773438	44.45442962646486	1332.637329101563	-1197.779174804688	-48.04306411743167	1053.215942382813	-1236.522827148438	18.48900222778321	1008.352416992188	-1203.283081054688	-31.39864349365236	1006.092590332032	-1210.87109375	37.39702224731447	878.7172241210942	-1401.026733398438	-37.69256591796876	858.8324584960942	-1382.585083007813	46.96736526489259	820.9636230468755	-1465.740844726563	-34.48239135742189	786.8507690429692	-1413.408813476563	308.4405517578126	1176.460327148438	-1034.03466796875	296.2619934082032	1300.275268554688	-1058.669677734375	406.3313293457034	1296.5576171875	-1125.012329101563	402.4622802734377	1303.064453125	-1176.28955078125	458.6351318359377	1001.19482421875	-1106.87451171875	380.4257202148439	988.2518920898442	-1087.81787109375	425.1833801269534	981.634399414063	-1079.712036132813	451.3338012695315	790.3503417968755	-1195.549682617188	502.3779907226565	793.2573852539067	-1132.636474609375	470.7305297851565	698.2231445312502	-1215.57958984375	498.2617797851565	711.3386230468752	-1117.271362304688	
